<?xml version="1.0" standalone="no"?>
<!DOCTYPE svg PUBLIC "-//W3C//DTD SVG 20010904//EN"
 "http://www.w3.org/TR/2001/REC-SVG-20010904/DTD/svg10.dtd">
<svg version="1.0" xmlns="http://www.w3.org/2000/svg"
 width="163.000000pt" height="163.000000pt" viewBox="0 0 163.000000 163.000000"
 preserveAspectRatio="xMidYMid meet">
<metadata>
Created by potrace 1.11, written by Peter Selinger 2001-2013
</metadata>
<g transform="translate(0.000000,163.000000) scale(0.100000,-0.100000)"
fill="#000000" stroke="none">
<path d="M250 1422 l0 -90 134 0 c74 0 138 -2 143 -5 4 -3 8 -168 8 -367 0
-199 2 -365 5 -368 3 -4 49 -7 103 -7 l97 -1 0 373 0 373 88 0 c132 -1 202
-40 202 -116 0 -41 -12 -50 -123 -94 -114 -46 -124 -62 -83 -141 36 -70 224
-360 246 -380 13 -11 38 -15 96 -14 44 0 79 5 79 11 0 5 -15 30 -34 56 -19 26
-71 110 -117 187 l-82 140 66 31 c154 72 209 189 147 315 -28 58 -46 80 -97
119 -71 53 -101 57 -505 63 l-373 5 0 -90z"/>
<path d="M514 471 c-11 -12 -1 -22 19 -19 21 3 22 -1 23 -57 3 -92 3 -99 12
-91 4 4 7 40 7 79 1 68 2 72 23 71 19 -1 34 15 15 17 -38 3 -96 3 -99 0z"/>
<path d="M960 390 l0 -86 45 0 c25 0 45 5 45 11 0 7 -14 9 -35 7 -34 -4 -35
-3 -35 32 0 36 0 36 42 36 48 0 45 12 -4 14 -27 1 -34 6 -36 27 -3 24 0 26 33
24 19 -2 38 1 41 6 3 5 -3 9 -13 10 -10 0 -33 1 -51 2 l-32 2 0 -85z"/>
<path d="M1123 468 c-2 -5 2 -8 9 -9 50 -4 69 -6 73 -10 2 -3 -18 -34 -45 -69
-27 -36 -49 -68 -50 -71 0 -8 117 -5 126 4 4 4 -16 7 -44 7 l-52 0 51 71 c28
39 48 73 45 76 -9 9 -107 9 -113 1z"/>
<path d="M781 390 c0 -44 4 -82 9 -85 6 -4 10 9 10 28 0 50 9 51 48 7 19 -22
39 -37 44 -34 5 4 -4 20 -21 38 -30 30 -30 32 -11 44 22 14 26 52 8 70 -7 7
-29 12 -49 12 l-38 0 0 -80z m77 36 c-2 -15 -11 -22 -30 -24 -24 -3 -28 0 -28
22 0 26 14 36 43 28 12 -3 17 -12 15 -26z"/>
<path d="M680 370 c0 -5 5 -10 11 -10 5 0 7 5 4 10 -3 6 -8 10 -11 10 -2 0 -4
-4 -4 -10z"/>
<path d="M566 224 c-9 -8 -16 -22 -16 -29 0 -19 39 -45 56 -38 22 8 16 22 -7
16 -12 -4 -25 0 -29 8 -13 20 7 48 30 44 11 -2 18 0 15 6 -9 14 -32 11 -49 -7z"/>
<path d="M959 233 c0 -5 -2 -18 -3 -30 -1 -12 1 -28 6 -35 4 -8 8 4 8 30 0 23
-2 42 -5 42 -3 0 -5 -3 -6 -7z"/>
<path d="M1006 212 c-6 -10 -2 -39 7 -48 4 -4 7 7 7 24 0 32 -4 39 -14 24z"/>
<path d="M656 195 c-8 -22 1 -35 25 -35 15 0 20 6 17 22 -4 27 -33 36 -42 13z
m31 -21 c-9 -9 -28 6 -21 18 4 6 10 6 17 -1 6 -6 8 -13 4 -17z"/>
<path d="M737 188 c-4 -12 -4 -24 -1 -27 3 -3 7 5 11 17 7 28 20 28 26 0 5
-20 5 -20 4 2 -2 32 -32 39 -40 8z"/>
<path d="M816 201 c-4 -5 -1 -13 5 -17 8 -4 7 -9 -2 -15 -10 -6 -8 -9 8 -9 18
0 22 5 20 22 -4 24 -22 35 -31 19z"/>
<path d="M881 188 c-1 -22 4 -28 19 -28 11 0 20 3 21 8 0 4 2 15 4 25 2 9 -1
15 -6 11 -5 -3 -9 -12 -9 -20 0 -23 -18 -16 -23 9 -4 19 -4 18 -6 -5z"/>
<path d="M1101 183 c2 -24 2 -25 6 -5 7 35 30 25 24 -11 -1 -5 3 -6 9 -2 15 9
12 32 -6 39 -28 11 -34 7 -33 -21z"/>
<path d="M1186 203 c-12 -12 -6 -61 8 -66 19 -8 36 12 36 43 0 18 -6 26 -19
27 -10 1 -22 -1 -25 -4z m25 -26 c-13 -13 -26 -3 -16 12 3 6 11 8 17 5 6 -4 6
-10 -1 -17z m9 -21 c0 -11 -19 -15 -25 -6 -3 5 1 10 9 10 9 0 16 -2 16 -4z"/>
<path d="M1050 186 c0 -8 4 -17 9 -21 6 -3 9 4 8 15 -1 23 -17 28 -17 6z"/>
</g>
</svg>
